# xmcd
#
# Track frame offsets:
#	150
#	13597
#	29257
#	43153
#	54750
#	65720
#	76579
#	91887
#	106885
#	127309
#	139181
#	157055
#	168860
#	180517
#
# Disc length: 2626 seconds
# Revision: 0
# Processed by: cddbd v1.5.2PL0 Copyright (c) Steve Scherf et al.
# Submitted via: dBpowerAMP V12.0
#
DISCID=b10a400e
DTITLE=Lou Reid and Carolina - Sounds Like Heaven To Me
DYEAR=2010
DGENRE=Bluegrass
TTITLE0=God's Front Porch
TTITLE1=Finally Made It Home
TTITLE2=Carry Me
TTITLE3=Missionary Good Book Man
TTITLE4=It's Hard To Stumble (When Your Down On Your Knees)
TTITLE5=John In the Jordan
TTITLE6=Daddy Tried
TTITLE7=Pick It Up
TTITLE8=Sunday's Best
TTITLE9=Sweet By and By
TTITLE10=Mama
TTITLE11=Over In the Promised Land
TTITLE12=Lord Have Mercy (On My Soul)
TTITLE13=God's Plan
EXTD=
EXTT0=
EXTT1=
EXTT2=
EXTT3=
EXTT4=
EXTT5=
EXTT6=
EXTT7=
EXTT8=
EXTT9=
EXTT10=
EXTT11=
EXTT12=
EXTT13=
PLAYORDER=
